<?xml version="1.0" encoding="UTF-8" standalone="no" ?>
<!DOCTYPE svg PUBLIC "-//W3C//DTD SVG 1.1//EN" "http://www.w3.org/Graphics/SVG/1.1/DTD/svg11.dtd">
<svg xmlns="http://www.w3.org/2000/svg" xmlns:xlink="http://www.w3.org/1999/xlink" version="1.1" width="1280" height="1024" viewBox="0 0 1280 1024" xml:space="preserve">
<desc>Created with Fabric.js 5.3.0</desc>
<defs>
</defs>
<g transform="matrix(1 0 0 1 640 512)" id="background-logo"  >
<rect style="stroke: none; stroke-width: 0; stroke-dasharray: none; stroke-linecap: butt; stroke-dashoffset: 0; stroke-linejoin: miter; stroke-miterlimit: 4; fill: rgb(0,0,0); fill-rule: nonzero; opacity: 1;"  paint-order="stroke"  x="-640" y="-512" rx="0" ry="0" width="1280" height="1024" />
</g>
<g transform="matrix(1.9211538461538462 0 0 1.9211538461538462 640.0960576923077 641.4836627109632)" id="text-logo"  >
<g style=""  paint-order="stroke"   >
		<g transform="matrix(1 0 0 1 0 0)" id="text-logo-path-0"  >
<path style="stroke: none; stroke-width: 0.5319148936170208; stroke-dasharray: none; stroke-linecap: butt; stroke-dashoffset: 0; stroke-linejoin: miter; stroke-miterlimit: 4; fill: rgb(175,71,240); fill-rule: nonzero; opacity: 1;"  paint-order="stroke"  transform=" translate(-167.575, 17.5)" d="M 19.15 0 L 28.35 0 L 36.5 -19.45 L 36.5 0 L 45 0 L 45 -35 L 34.5 -35 L 23.75 -9.3 L 13 -35 L 2.5 -35 L 2.5 0 L 11 0 L 11 -19.45 L 19.15 0 Z M 66.65 -13.5 L 66.65 0 L 75.15 0 L 75.15 -13.5 L 88.65 -35 L 79.65 -35 L 70.9 -21.05 L 62.15 -35 L 53.15 -35 L 66.65 -13.5 Z M 96.8 0 L 105.3 0 L 105.3 -11.5 L 111.65 -11.5 L 118.3 0 L 127.3 0 L 120.2 -12.3 C 124.5 -13.8 126.65 -17.5 126.65 -23.35 C 126.65 -31.1 122.75 -35 114.95 -35 L 96.8 -35 L 96.8 0 Z M 105.3 -18.5 L 105.3 -28 L 114.9 -28 C 116.95 -28 118.15 -26.45 118.15 -23.3 C 118.15 -20.1 117.05 -18.5 114.9 -18.5 L 105.3 -18.5 Z M 135.45 0 L 163.95 0 L 163.95 -7 L 143.95 -7 L 143.95 -14 L 158.95 -14 L 158.95 -21 L 143.95 -21 L 143.95 -28 L 163.95 -28 L 163.95 -35 L 135.45 -35 L 135.45 0 Z M 187.85 0.5 C 196.2 0.5 200.6 -1.3 202.35 -4.55 C 203.2 -6.15 203.65 -8.3 203.65 -10.9 C 203.65 -17.7 200.5 -21 191.65 -21 L 187.85 -21 C 184.35 -21 182.35 -21 181.35 -22 C 180.9 -22.45 180.65 -23.25 180.65 -24.35 C 180.65 -26.6 181.25 -27.65 183.3 -28.15 C 184.35 -28.4 185.85 -28.5 187.9 -28.5 C 190.85 -28.5 192.35 -28.25 193.35 -26.7 C 193.85 -25.95 194.1 -24.75 194.1 -23.2 L 202.65 -23.2 C 202.65 -32.4 197.65 -35.5 187.9 -35.5 C 179.55 -35.5 175.2 -33.7 173.45 -30.45 C 172.55 -28.85 172.1 -26.7 172.1 -24.1 C 172.1 -17.3 175.25 -14 184.1 -14 L 187.85 -14 C 191.2 -14 193.35 -13.8 194.4 -12.8 C 194.85 -12.3 195.1 -11.6 195.1 -10.65 C 195.1 -8.4 194.55 -7.4 192.5 -6.9 C 191.4 -6.6 189.9 -6.5 187.85 -6.5 C 184.25 -6.5 182.5 -6.75 181.45 -8.3 C 180.9 -9.05 180.65 -10.2 180.65 -11.8 L 172.1 -11.8 C 172.1 -5.45 174.5 -2.1 179.15 -0.6 C 181.45 0.15 184.3 0.5 187.85 0.5 Z M 228.6 0.5 C 239.8 0.5 245.35 -4.75 245.35 -16.3 L 245.3 -35 L 236.8 -35 L 236.8 -14.75 C 236.8 -9.2 234.2 -6.5 228.6 -6.5 C 223.05 -6.5 220.35 -9.1 220.35 -14.75 L 220.3 -35 L 211.8 -35 L 211.8 -16.3 C 211.8 -5.1 217.05 0.5 228.6 0.5 Z M 270.15 0 L 279.35 0 L 287.5 -19.45 L 287.5 0 L 296 0 L 296 -35 L 285.5 -35 L 274.75 -9.3 L 264 -35 L 253.5 -35 L 253.5 0 L 262 0 L 262 -19.45 L 270.15 0 Z M 304.15 0 L 332.65 0 L 332.65 -7 L 312.65 -7 L 312.65 -14 L 327.65 -14 L 327.65 -21 L 312.65 -21 L 312.65 -28 L 332.65 -28 L 332.65 -35 L 304.15 -35 L 304.15 0 Z" stroke-linecap="round" />
</g>
</g>
</g>
<g transform="matrix(1.9211538461538462 0 0 1.9211538461538462 640 723.1440948539821)" id="tagline-c349782e-9ba2-4d7a-a88f-99e086d1d059-logo"  >
<g style=""  paint-order="stroke"   >
		<g transform="matrix(1 0 0 1 0 0)" id="tagline-c349782e-9ba2-4d7a-a88f-99e086d1d059-logo-path-0"  >
<path style="stroke: none; stroke-width: 0.45952459110699484; stroke-dasharray: none; stroke-linecap: butt; stroke-dashoffset: 0; stroke-linejoin: miter; stroke-miterlimit: 4; fill: rgb(175,71,240); fill-rule: nonzero; opacity: 1;"  paint-order="stroke"  transform=" translate(-175.21, 9.799999999999999)" d="M 10.22 0.28 C 14.9 0.28 17.36 -0.73 18.34 -2.55 C 18.82 -3.44 19.07 -4.65 19.07 -6.1 C 19.07 -9.91 17.3 -11.76 12.35 -11.76 L 10.22 -11.76 C 8.26 -11.76 7.14 -11.76 6.58 -12.32 C 6.33 -12.57 6.19 -13.02 6.19 -13.64 C 6.19 -14.9 6.52 -15.48 7.67 -15.76 C 8.26 -15.9 9.1 -15.96 10.25 -15.96 C 11.9 -15.96 12.74 -15.82 13.3 -14.95 C 13.58 -14.53 13.72 -13.86 13.72 -12.99 L 18.51 -12.99 C 18.51 -18.14 15.71 -19.88 10.25 -19.88 C 5.57 -19.88 3.14 -18.87 2.16 -17.05 C 1.65 -16.16 1.4 -14.95 1.4 -13.5 C 1.4 -9.69 3.16 -7.84 8.12 -7.84 L 10.22 -7.84 C 12.1 -7.84 13.3 -7.73 13.89 -7.17 C 14.14 -6.89 14.28 -6.5 14.28 -5.96 C 14.28 -4.7 13.97 -4.14 12.82 -3.86 C 12.21 -3.7 11.37 -3.64 10.22 -3.64 C 8.2 -3.64 7.22 -3.78 6.64 -4.65 C 6.33 -5.07 6.19 -5.71 6.19 -6.61 L 1.4 -6.61 C 1.4 -3.05 2.74 -1.18 5.35 -0.34 C 6.64 0.08 8.23 0.28 10.22 0.28 Z M 35.56 0 L 51.52 0 L 51.52 -3.92 L 40.32 -3.92 L 40.32 -19.6 L 35.56 -19.6 L 35.56 0 Z M 78.12 0.28 C 84.81 0.28 88.17 -2.97 88.17 -9.83 C 88.17 -16.55 85.04 -19.88 78.12 -19.88 C 71.37 -19.88 68.01 -16.74 68.01 -9.83 C 68.01 -3.08 71.18 0.28 78.12 0.28 Z M 72.77 -9.83 C 72.77 -13.94 74.45 -15.96 78.12 -15.96 C 81.62 -15.96 83.41 -14 83.41 -9.83 C 83.41 -5.68 81.79 -3.64 78.12 -3.64 C 74.54 -3.64 72.77 -5.57 72.77 -9.83 Z M 114.77 0.28 C 121.02 0.28 124.21 -1.93 124.35 -6.41 L 124.35 -10.33 L 115.36 -10.33 L 115.36 -6.41 L 119.56 -6.41 C 119.36 -4.56 117.24 -3.64 114.77 -3.64 C 111.16 -3.64 109.42 -5.49 109.42 -9.83 C 109.42 -14 111.05 -15.96 114.77 -15.96 C 117.49 -15.96 119.62 -15.12 119.62 -12.88 L 124.38 -12.88 C 124.04 -17.56 120.37 -19.88 114.77 -19.88 C 107.94 -19.88 104.66 -16.8 104.66 -9.83 C 104.66 -3 107.74 0.28 114.77 0.28 Z M 155.99 0 L 160.75 0 L 153.33 -19.6 L 148.29 -19.6 L 140.87 0 L 145.63 0 L 147 -3.64 L 154.62 -3.64 L 155.99 0 Z M 148.48 -7.56 L 150.81 -13.69 L 153.13 -7.56 L 148.48 -7.56 Z M 190.12 0 L 196 0 L 196 -19.6 L 191.24 -19.6 L 191.24 -6.08 L 183.12 -19.6 L 177.24 -19.6 L 177.24 0 L 182 0 L 182 -13.52 L 190.12 0 Z M 245.78 0 L 250.54 0 L 250.54 -19.6 L 245.78 -19.6 L 245.78 -11.76 L 236.54 -11.76 L 236.54 -19.6 L 231.78 -19.6 L 231.78 0 L 236.54 0 L 236.54 -7.84 L 245.78 -7.84 L 245.78 0 Z M 267.04 0 L 283 0 L 283 -3.92 L 271.8 -3.92 L 271.8 -7.84 L 280.2 -7.84 L 280.2 -11.76 L 271.8 -11.76 L 271.8 -15.68 L 283 -15.68 L 283 -19.6 L 267.04 -19.6 L 267.04 0 Z M 299.49 0 L 304.25 0 L 304.25 -6.44 L 307.8 -6.44 L 311.53 0 L 316.57 0 L 312.59 -6.89 C 315 -7.73 316.2 -9.8 316.2 -13.08 C 316.2 -17.42 314.02 -19.6 309.65 -19.6 L 299.49 -19.6 L 299.49 0 Z M 304.25 -10.36 L 304.25 -15.68 L 309.62 -15.68 C 310.77 -15.68 311.44 -14.81 311.44 -13.05 C 311.44 -11.26 310.83 -10.36 309.62 -10.36 L 304.25 -10.36 Z M 333.06 0 L 349.02 0 L 349.02 -3.92 L 337.82 -3.92 L 337.82 -7.84 L 346.22 -7.84 L 346.22 -11.76 L 337.82 -11.76 L 337.82 -15.68 L 349.02 -15.68 L 349.02 -19.6 L 333.06 -19.6 L 333.06 0 Z" stroke-linecap="round" />
</g>
</g>
</g>
<g transform="matrix(1.9211538461538462 0 0 1.9211538461538462 640 425.65954908206027)" id="tagline-83fdfb2a-8044-4ad8-b129-1c6be14b1c43-logo"  >
<g style=""  paint-order="stroke"   >
		<g transform="matrix(1 0 0 1 0 0)" id="tagline-83fdfb2a-8044-4ad8-b129-1c6be14b1c43-logo-path-0"  >
<linearGradient id="SVGID_13786" gradientUnits="userSpaceOnUse" gradientTransform="matrix(1 0 0 1 7.75 -108.5)"  x1="-7.75" y1="-27.766699999999986" x2="-7.75" y2="147.2333">
<stop offset="0%" style="stop-color:rgb(188,99,242);stop-opacity: 1"/>
<stop offset="100%" style="stop-color:rgb(165,47,238);stop-opacity: 1"/>
</linearGradient>
<path style="stroke: rgb(255,255,255); stroke-width: 0; stroke-dasharray: none; stroke-linecap: butt; stroke-dashoffset: 0; stroke-linejoin: miter; stroke-miterlimit: 4; fill: url(#SVGID_13786); fill-rule: nonzero; opacity: 1;"  paint-order="stroke"  transform=" translate(-73.625, 54.25)" d="M 59.37 0 L 87.89 0 L 113.15 -60.3 L 113.15 0 L 139.5 0 L 139.5 -108.5 L 106.95 -108.5 L 73.63 -28.83 L 40.3 -108.5 L 7.75 -108.5 L 7.75 0 L 34.1 0 L 34.1 -60.3 L 59.37 0 Z" stroke-linecap="round" />
</g>
</g>
</g>
</svg>